<svg width="200" height="200" viewBox="0 0 200 200" fill="none" xmlns="http://www.w3.org/2000/svg">
    <defs>
        <linearGradient id="blueGradient" x1="0%" y1="0%" x2="100%" y2="100%">
            <stop offset="0%" stop-color="#4A90E2" />
            <stop offset="100%" stop-color="#0056B3" />
        </linearGradient>
        <linearGradient id="greenGradient" x1="0%" y1="0%" x2="100%" y2="100%">
            <stop offset="0%" stop-color="#50E3C2" />
            <stop offset="100%" stop-color="#28B485" />
        </linearGradient>
    </defs>

    <path d="M100 20C55.8172 20 20 55.8172 20 100C20 144.183 55.8172 180 100 180C144.183 180 180 144.183 180 100C180 55.8172 144.183 20 100 20ZM100 170C61.3401 170 30 138.66 30 100C30 61.3401 61.3401 30 100 30C138.66 30 170 61.3401 170 100C170 138.66 138.66 170 100 170Z" fill="url(#blueGradient)" fill-opacity="0.2"/>
    
    <g transform="translate(50, 55) scale(0.5)">
        <path d="M100 10L30 50V140C30 178.66 100 220 100 220C100 220 170 178.66 170 140V50L100 10Z" stroke="url(#blueGradient)" stroke-width="10" stroke-linecap="round" stroke-linejoin="round"/>
        <path d="M100 60V140M70 100H130" stroke="url(#greenGradient)" stroke-width="12" stroke-linecap="round"/>
        <path d="M130 100L120 90M130 100L120 110M70 100L80 90M70 100L80 110" stroke="url(#greenGradient)" stroke-width="12" stroke-linecap="round" stroke-linejoin="round"/>
    </g>

    <text x="100" y="155" font-family="'Helvetica Neue', Helvetica, Arial, sans-serif" font-weight="bold" font-size="22" text-anchor="middle" fill="#333">
        医大集市
    </text>
</svg>